<?xml version="1.0"?>
<svg xmlns="http://www.w3.org/2000/svg" xmlns:xlink="http://www.w3.org/1999/xlink" xmlns:svgjs="http://svgjs.com/svgjs" version="1.1" width="512" height="512" x="0" y="0" viewBox="0 0 512 512" style="enable-background:new 0 0 512 512" xml:space="preserve" class=""><g><g xmlns="http://www.w3.org/2000/svg"><g><path d="m447.35 88.313c0-4.143-3.357-7.5-7.5-7.5h-125.26c-4.143 0-7.5 3.357-7.5 7.5v32.325c0 4.143 3.357 7.5 7.5 7.5h125.26c4.143 0 7.5-3.357 7.5-7.5zm-15 24.826h-110.26v-17.326h110.26z" fill="#d42028" data-original="#000000" style="" class=""/><path d="m72.15 257.439h50.508c4.143 0 7.5-3.357 7.5-7.5s-3.357-7.5-7.5-7.5h-50.508c-4.143 0-7.5 3.357-7.5 7.5s3.358 7.5 7.5 7.5z" fill="#d42028" data-original="#000000" style="" class=""/><path d="m72.15 289.765h101.017c4.143 0 7.5-3.357 7.5-7.5s-3.357-7.5-7.5-7.5h-101.017c-4.143 0-7.5 3.357-7.5 7.5s3.358 7.5 7.5 7.5z" fill="#d42028" data-original="#000000" style="" class=""/><path d="m39.83 128.29c-4.143 0-7.5 3.357-7.5 7.5v178.8c0 4.143 3.357 7.5 7.5 7.5h432.34c4.143 0 7.5-3.357 7.5-7.5v-258.6c0-4.143-3.357-7.5-7.5-7.5h-432.34c-4.143 0-7.5 3.357-7.5 7.5v44.8c0 4.143 3.357 7.5 7.5 7.5s7.5-3.357 7.5-7.5v-37.3h417.34v243.6h-417.34v-171.3c0-4.143-3.357-7.5-7.5-7.5z" fill="#d42028" data-original="#000000" style="" class=""/><path d="m504.5 217.4c4.143 0 7.5-3.357 7.5-7.5v-166.03c0-15.279-12.426-27.71-27.7-27.71h-456.6c-15.274 0-27.7 12.431-27.7 27.71v313.15c0 15.273 12.426 27.7 27.7 27.7h156.737l-15.918 55.71h-9.5c-15.273 0-27.699 12.427-27.699 27.7v20.21c0 4.143 3.357 7.5 7.5 7.5h234.36c4.143 0 7.5-3.357 7.5-7.5v-20.21c0-15.273-12.426-27.7-27.699-27.7h-9.5l-15.918-55.71h156.737c15.274 0 27.7-12.427 27.7-27.7v-112.12c0-4.143-3.357-7.5-7.5-7.5s-7.5 3.357-7.5 7.5v112.12c0 7.003-5.697 12.7-12.7 12.7h-456.6c-7.003 0-12.7-5.697-12.7-12.7v-313.15c0-7.009 5.697-12.71 12.7-12.71h456.6c7.003 0 12.7 5.701 12.7 12.71v166.03c0 4.143 3.357 7.5 7.5 7.5zm-176.62 223.03h-13.98c-4.143 0-7.5 3.357-7.5 7.5s3.357 7.5 7.5 7.5h39.08c7.002 0 12.699 5.697 12.699 12.7v12.71h-219.359v-12.71c0-7.003 5.697-12.7 12.699-12.7h119.881c4.143 0 7.5-3.357 7.5-7.5s-3.357-7.5-7.5-7.5h-94.78l15.918-55.71h111.925z" fill="#d42028" data-original="#000000" style="" class=""/><path d="m92.354 161.626c-15.275 0-27.703 12.428-27.703 27.703s12.428 27.703 27.703 27.703 27.703-12.428 27.703-27.703c0-4.918-1.294-9.537-3.551-13.545l15.841-15.841c4.008 2.257 8.627 3.551 13.546 3.551 4.918 0 9.537-1.294 13.545-3.551l6.749 6.749c-2.257 4.008-3.551 8.627-3.551 13.546 0 15.275 12.428 27.703 27.704 27.703 15.275 0 27.703-12.428 27.703-27.703 0-4.918-1.294-9.538-3.551-13.546l34.023-34.023c4.008 2.257 8.627 3.551 13.545 3.551 15.276 0 27.704-12.428 27.704-27.703s-12.428-27.703-27.704-27.703c-15.275 0-27.703 12.428-27.703 27.703 0 4.918 1.294 9.537 3.551 13.545l-34.023 34.023c-4.008-2.257-8.627-3.551-13.545-3.551s-9.538 1.294-13.546 3.551l-6.749-6.749c2.257-4.008 3.551-8.627 3.551-13.545 0-15.276-12.428-27.704-27.703-27.704s-27.703 12.428-27.703 27.704c0 4.918 1.294 9.537 3.55 13.544l-15.841 15.841c-4.008-2.256-8.628-3.55-13.545-3.55zm0 40.406c-7.005 0-12.703-5.698-12.703-12.703s5.698-12.703 12.703-12.703 12.703 5.698 12.703 12.703-5.699 12.703-12.703 12.703zm169.707-106.219c7.005 0 12.704 5.698 12.704 12.703s-5.699 12.703-12.704 12.703-12.703-5.698-12.703-12.703 5.698-12.703 12.703-12.703zm-59.018 84.425c0 7.005-5.698 12.703-12.703 12.703s-12.704-5.698-12.704-12.703 5.699-12.704 12.704-12.704 12.703 5.699 12.703 12.704zm-57.15-57.151c7.005 0 12.703 5.699 12.703 12.704s-5.698 12.703-12.703 12.703-12.703-5.698-12.703-12.703 5.698-12.704 12.703-12.704z" fill="#d42028" data-original="#000000" style="" class=""/><path d="m270.724 233.776v48.488c0 4.143 3.357 7.5 7.5 7.5h32.325c4.143 0 7.5-3.357 7.5-7.5v-48.488c0-4.143-3.357-7.5-7.5-7.5h-32.325c-4.143 0-7.5 3.358-7.5 7.5zm15 7.5h17.325v33.488h-17.325z" fill="#d42028" data-original="#000000" style="" class=""/><path d="m342.874 185.87c-4.143 0-7.5 3.357-7.5 7.5v88.895c0 4.143 3.357 7.5 7.5 7.5h32.325c4.143 0 7.5-3.357 7.5-7.5v-88.895c0-4.143-3.357-7.5-7.5-7.5zm24.825 88.895h-17.325v-73.895h17.325z" fill="#d42028" data-original="#000000" style="" class=""/><path d="m439.85 145.464h-32.325c-4.143 0-7.5 3.357-7.5 7.5v129.301c0 4.143 3.357 7.5 7.5 7.5h32.325c4.143 0 7.5-3.357 7.5-7.5v-129.301c0-4.143-3.358-7.5-7.5-7.5zm-7.5 129.301h-17.325v-114.301h17.325z" fill="#d42028" data-original="#000000" style="" class=""/></g></g></g></svg>
